<!DOCTYPE svg PUBLIC "-//W3C//DTD SVG 1.1//EN" "http://www.w3.org/Graphics/SVG/1.1/DTD/svg11.dtd">

<!-- Uploaded to: SVG Repo, www.svgrepo.com, Transformed by: SVG Repo Mixer Tools -->
<svg fill="#777777" height="800px" width="800px" version="1.1" id="Layer_1" xmlns="http://www.w3.org/2000/svg" xmlns:xlink="http://www.w3.org/1999/xlink" viewBox="0 0 512 512" xml:space="preserve">

<g id="SVGRepo_bgCarrier" stroke-width="0"/>

<g id="SVGRepo_tracerCarrier" stroke-linecap="round" stroke-linejoin="round"/>

<g id="SVGRepo_iconCarrier"> <g> <g> <path d="M256,0c-79.36,0-144,64.32-144,143.36c0,25.813,21.227,46.827,47.36,46.827c26.133,0,47.467-21.013,47.467-46.827 c0-27.413,21.76-49.6,48.427-49.6c26.88,0,48.747,22.293,48.747,49.6v321.707C304,490.88,325.547,512,352,512 c26.453,0,48-21.013,48-46.933V143.36C400,64.32,335.467,0,256,0z M256,21.333c5.227,0,10.347,0.427,15.573,1.067L142.827,96.427 C162.027,50.987,206.613,21.333,256,21.333z M295.787,85.547c-11.733-8.533-25.92-13.227-40.533-13.227 c-38.507,0.107-69.76,31.893-69.76,71.04c0,14.08-11.733,25.493-26.133,25.493c-14.293,0.107-25.92-11.307-26.027-25.493 c0-5.973,0.533-12.053,1.493-18.027c0.533-0.213,0.96-0.32,1.493-0.64l164.907-94.72c16,6.293,30.4,15.893,42.453,28.16 L295.787,85.547z M311.467,101.227L357.44,74.88c9.067,13.227,15.467,28.16,18.667,43.84c-0.32,0.107-0.64,0.213-0.96,0.32 l-49.813,28.693v-4.267C325.333,128.32,320.427,113.493,311.467,101.227z M378.667,465.067c0,13.867-12.267,25.6-26.667,25.6 c-14.4,0-26.667-11.733-26.667-25.6v-7.253l53.333-28.693V465.067z M378.667,404.8c-0.32,0.107-0.64,0.107-1.067,0.32 l-52.267,28.16v-74.773l53.333-25.173V404.8z M378.667,309.76l-53.333,25.173v-77.867c0.107-0.107,0.32-0.107,0.427-0.213 l52.907-30.4V309.76z M378.667,202.667c-1.173,0.213-2.347,0.533-3.52,1.173l-49.813,28.693v-60.267 c0.107-0.107,0.32-0.107,0.427-0.213l52.8-30.293c0,0.533,0.107,1.067,0.107,1.6V202.667z"/> </g> </g> </g>

</svg>